# xmcd CD database file
#
# Track frame offsets:
#	150
#	30376
#	42881
#	60296
#	79035
#	90504
#	111899
#	133111
#	155961
#	209265
#	231523
#
# Disc length: 3527 seconds
#
# Revision: 0
# Processed by: cddbd v1.5.2PL0 Copyright (c) Steve Scherf et al.
# Submitted via: CDex 1.60beta1-cs1
#
DISCID=8c0dc50b
DTITLE=Blue River Ordonnance - Hand Crafted
DYEAR=1998
DGENRE=Blues
TTITLE0=Snake Doctor
TTITLE1=Don't Come Back
TTITLE2=You're the one that I Adore
TTITLE3=Bayou Blood
TTITLE4=Downstream
TTITLE5=The Thrill is Gone
TTITLE6=Travelin' On
TTITLE7=Foolish Bet
TTITLE8=Death Letter
TTITLE9=Leaves
TTITLE10=Faith Healer
EXTD=YEAR: 1998
EXTT0=
EXTT1=
EXTT2=
EXTT3=
EXTT4=
EXTT5=
EXTT6=
EXTT7=
EXTT8=
EXTT9=
EXTT10=
PLAYORDER=
